<mxfile host="app.diagrams.net" modified="2023-11-30T18:51:34.135Z" agent="Mozilla/5.0 (Windows NT 10.0; Win64; x64) AppleWebKit/537.36 (KHTML, like Gecko) Chrome/116.0.5845.686 YaBrowser/23.9.5.686 Yowser/2.5 Safari/537.36" etag="EI25xqCPq1A-49aojXum" version="22.1.5" type="github">
  <diagram id="C5RBs43oDa-KdzZeNtuy" name="Page-1">
    <mxGraphModel dx="911" dy="523" grid="1" gridSize="10" guides="1" tooltips="1" connect="1" arrows="1" fold="1" page="1" pageScale="1" pageWidth="3300" pageHeight="4681" math="0" shadow="0">
      <root>
        <mxCell id="WIyWlLk6GJQsqaUBKTNV-0" />
        <mxCell id="WIyWlLk6GJQsqaUBKTNV-1" parent="WIyWlLk6GJQsqaUBKTNV-0" />
        <mxCell id="foiO9CrmPWsVptAweWio-0" value="Lesson" style="swimlane;fontStyle=1;align=center;verticalAlign=top;childLayout=stackLayout;horizontal=1;startSize=26;horizontalStack=0;resizeParent=1;resizeParentMax=0;resizeLast=0;collapsible=1;marginBottom=0;whiteSpace=wrap;html=1;" vertex="1" parent="WIyWlLk6GJQsqaUBKTNV-1">
          <mxGeometry x="70" y="50" width="210" height="170" as="geometry" />
        </mxCell>
        <mxCell id="foiO9CrmPWsVptAweWio-1" value="+ course: Courses&lt;br&gt;+ typeLesson: LessonType&lt;br&gt;+ teacher: Teacher&lt;br&gt;+ schedule: Map&amp;lt;Lesson, WeekDay&amp;gt;" style="text;strokeColor=none;fillColor=none;align=left;verticalAlign=top;spacingLeft=4;spacingRight=4;overflow=hidden;rotatable=0;points=[[0,0.5],[1,0.5]];portConstraint=eastwest;whiteSpace=wrap;html=1;" vertex="1" parent="foiO9CrmPWsVptAweWio-0">
          <mxGeometry y="26" width="210" height="74" as="geometry" />
        </mxCell>
        <mxCell id="foiO9CrmPWsVptAweWio-2" value="" style="line;strokeWidth=1;fillColor=none;align=left;verticalAlign=middle;spacingTop=-1;spacingLeft=3;spacingRight=3;rotatable=0;labelPosition=right;points=[];portConstraint=eastwest;strokeColor=inherit;" vertex="1" parent="foiO9CrmPWsVptAweWio-0">
          <mxGeometry y="100" width="210" height="8" as="geometry" />
        </mxCell>
        <mxCell id="foiO9CrmPWsVptAweWio-3" value="+ getCourse():Courses&lt;br&gt;+ findTeacher():void&lt;br&gt;+ buildSchedule(Time2)" style="text;strokeColor=none;fillColor=none;align=left;verticalAlign=top;spacingLeft=4;spacingRight=4;overflow=hidden;rotatable=0;points=[[0,0.5],[1,0.5]];portConstraint=eastwest;whiteSpace=wrap;html=1;" vertex="1" parent="foiO9CrmPWsVptAweWio-0">
          <mxGeometry y="108" width="210" height="62" as="geometry" />
        </mxCell>
        <mxCell id="foiO9CrmPWsVptAweWio-4" style="edgeStyle=orthogonalEdgeStyle;rounded=0;orthogonalLoop=1;jettySize=auto;html=1;exitX=1;exitY=0.5;exitDx=0;exitDy=0;" edge="1" parent="foiO9CrmPWsVptAweWio-0" source="foiO9CrmPWsVptAweWio-1" target="foiO9CrmPWsVptAweWio-1">
          <mxGeometry relative="1" as="geometry" />
        </mxCell>
        <mxCell id="foiO9CrmPWsVptAweWio-5" value="Lesson" style="swimlane;fontStyle=1;align=center;verticalAlign=top;childLayout=stackLayout;horizontal=1;startSize=26;horizontalStack=0;resizeParent=1;resizeParentMax=0;resizeLast=0;collapsible=1;marginBottom=0;whiteSpace=wrap;html=1;" vertex="1" parent="WIyWlLk6GJQsqaUBKTNV-1">
          <mxGeometry x="360" y="50" width="210" height="170" as="geometry" />
        </mxCell>
        <mxCell id="foiO9CrmPWsVptAweWio-6" value="+ course: Courses&lt;br&gt;+ typeLesson: LessonType&lt;br&gt;+ teacher: Teacher&lt;br&gt;+ schedule: Map&amp;lt;Lesson, WeekDay&amp;gt;" style="text;strokeColor=none;fillColor=none;align=left;verticalAlign=top;spacingLeft=4;spacingRight=4;overflow=hidden;rotatable=0;points=[[0,0.5],[1,0.5]];portConstraint=eastwest;whiteSpace=wrap;html=1;" vertex="1" parent="foiO9CrmPWsVptAweWio-5">
          <mxGeometry y="26" width="210" height="74" as="geometry" />
        </mxCell>
        <mxCell id="foiO9CrmPWsVptAweWio-7" value="" style="line;strokeWidth=1;fillColor=none;align=left;verticalAlign=middle;spacingTop=-1;spacingLeft=3;spacingRight=3;rotatable=0;labelPosition=right;points=[];portConstraint=eastwest;strokeColor=inherit;" vertex="1" parent="foiO9CrmPWsVptAweWio-5">
          <mxGeometry y="100" width="210" height="8" as="geometry" />
        </mxCell>
        <mxCell id="foiO9CrmPWsVptAweWio-8" value="+ getCourse():Courses&lt;br&gt;+ findTeacher():void&lt;br&gt;+ buildSchedule(Time2)" style="text;strokeColor=none;fillColor=none;align=left;verticalAlign=top;spacingLeft=4;spacingRight=4;overflow=hidden;rotatable=0;points=[[0,0.5],[1,0.5]];portConstraint=eastwest;whiteSpace=wrap;html=1;" vertex="1" parent="foiO9CrmPWsVptAweWio-5">
          <mxGeometry y="108" width="210" height="62" as="geometry" />
        </mxCell>
        <mxCell id="foiO9CrmPWsVptAweWio-9" style="edgeStyle=orthogonalEdgeStyle;rounded=0;orthogonalLoop=1;jettySize=auto;html=1;exitX=1;exitY=0.5;exitDx=0;exitDy=0;" edge="1" parent="foiO9CrmPWsVptAweWio-5" source="foiO9CrmPWsVptAweWio-6" target="foiO9CrmPWsVptAweWio-6">
          <mxGeometry relative="1" as="geometry" />
        </mxCell>
      </root>
    </mxGraphModel>
  </diagram>
</mxfile>
